<!-- Generated by IcoMoon.io -->
<svg version="1.1" xmlns="http://www.w3.org/2000/svg" width="36" height="32" viewBox="0 0 36 32">
<title>download-white</title>
<path fill="#fff" d="M3.885 28.062v-17.067c0-0.003 0-0.007 0-0.011 0-0.717-0.579-1.299-1.295-1.303-0.717 0.005-1.295 0.587-1.295 1.303 0 0.004 0 0.008 0 0.011v18.378c0 0.725 0.58 1.314 1.295 1.314h31.087c0.716-0.005 1.295-0.587 1.295-1.303 0-0.004-0-0.008-0-0.011v-18.378c0-0.003 0-0.007 0-0.011 0-0.717-0.579-1.299-1.295-1.303-0.717 0.005-1.295 0.587-1.295 1.303 0 0.004 0 0.008 0 0.011v17.066h-28.499z"></path>
<path fill="#fff" d="M13.423 13.214c-0.266-0.269-0.635-0.435-1.043-0.435s-0.777 0.166-1.043 0.435c-0.268 0.27-0.433 0.642-0.433 1.052s0.165 0.782 0.433 1.052l5.683 5.724c0.267 0.268 0.636 0.433 1.043 0.433s0.777-0.166 1.043-0.433l5.685-5.724c0.267-0.27 0.432-0.641 0.432-1.051s-0.165-0.781-0.432-1.051c-0.266-0.269-0.635-0.435-1.043-0.435s-0.777 0.166-1.043 0.435l-3.166 3.185v-14.914c0-0.002 0-0.004 0-0.006 0-0.816-0.66-1.478-1.476-1.481-0.815 0.004-1.474 0.665-1.474 1.481 0 0.002 0 0.004 0 0.007v14.916l-3.166-3.189z"></path>
</svg>
