<!-- Generated by IcoMoon.io -->
<svg version="1.1" xmlns="http://www.w3.org/2000/svg" width="36" height="32" viewBox="0 0 36 32">
<title>download</title>
<path fill="#4a4a4a" d="M3.885 28.062h28.499v-17.067c0-0.725 0.578-1.314 1.295-1.314 0.715 0 1.295 0.589 1.295 1.314v18.379c0 0.725-0.58 1.314-1.295 1.314h-31.089c-0.716-0.005-1.295-0.587-1.295-1.303 0-0.004 0-0.008 0-0.011v-18.378c0-0.725 0.58-1.314 1.295-1.314 0.717 0 1.295 0.589 1.295 1.314v17.067zM13.423 13.214l3.166 3.191v-14.918c0-0.821 0.661-1.487 1.474-1.487 0.815 0 1.476 0.666 1.476 1.487v14.916l3.166-3.189c0.266-0.269 0.635-0.435 1.043-0.435s0.777 0.166 1.043 0.435c0.268 0.27 0.433 0.642 0.433 1.052s-0.165 0.782-0.433 1.052l-5.685 5.724c-0.267 0.268-0.636 0.433-1.043 0.433s-0.777-0.166-1.043-0.433l-5.683-5.724c-0.268-0.27-0.433-0.641-0.433-1.052s0.165-0.782 0.433-1.052c0.266-0.269 0.635-0.435 1.043-0.435s0.777 0.166 1.043 0.435z"></path>
</svg>
