<!-- Generated by IcoMoon.io -->
<svg version="1.1" xmlns="http://www.w3.org/2000/svg" width="42" height="32" viewBox="0 0 42 32">
<title>flood</title>
<path fill="#4a4a4a" d="M8.089 7.371c2.443 0 4.762-1.017 6.448-2.751 1.687 1.734 4.005 2.751 6.448 2.751s4.762-1.017 6.447-2.75c1.686 1.734 4.005 2.75 6.448 2.75 3.233 0 6.247-1.781 7.868-4.647 0.453-0.802 0.185-1.829-0.599-2.293s-1.788-0.19-2.242 0.613c-1.035 1.832-2.962 2.971-5.027 2.971s-3.992-1.138-5.028-2.971c-0.293-0.519-0.835-0.839-1.421-0.838s-1.127 0.32-1.42 0.839c-1.035 1.832-2.961 2.97-5.026 2.97s-3.992-1.139-5.028-2.971c-0.293-0.518-0.835-0.838-1.42-0.838h-0c-0.586 0-1.127 0.32-1.42 0.838-1.035 1.832-2.962 2.971-5.027 2.971s-3.992-1.138-5.028-2.971c-0.453-0.802-1.457-1.077-2.242-0.613s-1.053 1.491-0.599 2.293c1.619 2.867 4.634 4.647 7.868 4.647z"></path>
<path fill="#4a4a4a" d="M41.148 12.738c-0.784-0.463-1.788-0.19-2.242 0.613-1.035 1.832-2.962 2.971-5.027 2.971s-3.992-1.138-5.028-2.971c-0.293-0.519-0.835-0.838-1.421-0.838s-1.127 0.32-1.42 0.839c-1.035 1.832-2.961 2.97-5.026 2.97s-3.992-1.139-5.028-2.971c-0.293-0.518-0.835-0.838-1.42-0.838h-0c-0.586 0-1.127 0.32-1.42 0.838-1.035 1.832-2.962 2.971-5.027 2.971s-3.992-1.138-5.028-2.971c-0.453-0.802-1.457-1.077-2.242-0.613s-1.053 1.491-0.599 2.293c1.62 2.867 4.635 4.647 7.868 4.647 2.443 0 4.762-1.017 6.448-2.751 1.687 1.734 4.005 2.751 6.448 2.751s4.762-1.017 6.447-2.75c1.686 1.734 4.005 2.75 6.448 2.75 3.233 0 6.247-1.781 7.868-4.647 0.453-0.802 0.184-1.829-0.6-2.293z"></path>
<path fill="#4a4a4a" d="M41.148 25.045c-0.784-0.464-1.788-0.19-2.242 0.613-1.035 1.832-2.962 2.971-5.027 2.971s-3.992-1.138-5.028-2.971c-0.293-0.519-0.835-0.838-1.421-0.838s-1.127 0.32-1.42 0.839c-1.035 1.832-2.961 2.97-5.026 2.97s-3.992-1.139-5.028-2.971c-0.293-0.518-0.835-0.838-1.42-0.838h-0c-0.586 0-1.127 0.32-1.42 0.838-1.035 1.832-2.962 2.971-5.027 2.971s-3.992-1.138-5.028-2.971c-0.453-0.802-1.457-1.077-2.242-0.613s-1.053 1.491-0.599 2.293c1.62 2.867 4.635 4.647 7.868 4.647 2.443 0 4.762-1.017 6.448-2.751 1.687 1.734 4.005 2.751 6.448 2.751s4.762-1.017 6.447-2.75c1.686 1.734 4.005 2.75 6.448 2.75 3.233 0 6.247-1.781 7.868-4.647 0.453-0.802 0.184-1.829-0.6-2.293z"></path>
</svg>
