<?xml version="1.0" encoding="UTF-8"?>
<svg width="734px" height="60px" viewBox="0 0 734 60" version="1.1" xmlns="http://www.w3.org/2000/svg" xmlns:xlink="http://www.w3.org/1999/xlink">
    <!-- Generator: Sketch 47.1 (45422) - http://www.bohemiancoding.com/sketch -->
    <title>Group 5</title>
    <desc>Created with Sketch.</desc>
    <defs>
        <polygon id="path-1" points="551 0 711.274658 0 733.457382 28.4125004 711.274658 60 551 60"></polygon>
        <polygon id="path-2" points="415 0 575.274658 0 597.457382 28.4125004 575.274658 60 415 60"></polygon>
        <polygon id="path-3" points="457 0 617.274658 0 639.457382 28.4125004 617.274658 60 457 60"></polygon>
        <polygon id="path-4" points="335 0 495.274658 0 517.457382 28.4125004 495.274658 60 335 60"></polygon>
        <polygon id="path-5" points="222 0 382.274658 0 404.457382 28.4125004 382.274658 60 222 60"></polygon>
        <polygon id="path-6" points="82 0 242.274658 0 264.457382 28.4125004 242.274658 60 82 60"></polygon>
        <polygon id="path-7" points="0 0 120.274658 0 142.457382 28.4125004 120.274658 60 0 60"></polygon>
    </defs>
    <g id="Design" stroke="none" stroke-width="1" fill="none" fill-rule="evenodd">
        <g id="05_Guidance_implementation-Copy" transform="translate(-327.000000, -2737.000000)">
            <g id="Group-5" transform="translate(327.000000, 2737.000000)">
                <g id="Rectangle-9-Copy-3">
                    <use fill="#8E8C8C" fill-rule="evenodd" xlink:href="#path-1"></use>
                    <path stroke="#FCFFFD" stroke-width="1" d="M551.5,0.5 L551.5,59.5 L711.014812,59.5 L732.835341,28.4282545 L711.030687,0.5 L551.5,0.5 Z"></path>
                </g>
                <path d="M669.766602,29.9912109 L672.598633,29.9912109 L672.598633,33.6923828 C672.139646,33.8421231 671.707522,33.9471026 671.302246,34.0073242 C670.896971,34.0675459 670.48275,34.0976562 670.05957,34.0976562 C668.982091,34.0976562 668.159345,33.7810904 667.591309,33.1479492 C667.023272,32.514808 666.739258,31.6058002 666.739258,30.4208984 C666.739258,29.2685489 667.068844,28.3701204 667.728027,27.7255859 C668.38721,27.0810515 669.301101,26.7587891 670.469727,26.7587891 C671.202152,26.7587891 671.908525,26.905272 672.588867,27.1982422 L672.085938,28.4091797 C671.565102,28.1487617 671.023115,28.0185547 670.459961,28.0185547 C669.805661,28.0185547 669.281577,28.2382791 668.887695,28.6777344 C668.493813,29.1171897 668.296875,29.7080041 668.296875,30.4501953 C668.296875,31.2249388 668.455565,31.816567 668.772949,32.2250977 C669.090334,32.6336283 669.551755,32.8378906 670.157227,32.8378906 C670.472983,32.8378906 670.793618,32.8053389 671.119141,32.7402344 L671.119141,31.2509766 L669.766602,31.2509766 L669.766602,29.9912109 Z M675.811523,30.0302734 L676.299805,30.0302734 C676.778323,30.0302734 677.131509,29.9505216 677.359375,29.7910156 C677.587241,29.6315096 677.701172,29.3808611 677.701172,29.0390625 C677.701172,28.7005191 677.584799,28.4596361 677.352051,28.3164062 C677.119302,28.1731764 676.758792,28.1015625 676.270508,28.1015625 L675.811523,28.1015625 L675.811523,30.0302734 Z M675.811523,31.2607422 L675.811523,34 L674.297852,34 L674.297852,26.8613281 L676.37793,26.8613281 C677.347987,26.8613281 678.065753,27.0379214 678.53125,27.3911133 C678.996747,27.7443052 679.229492,28.2805954 679.229492,29 C679.229492,29.419924 679.113933,29.7934554 678.882812,30.1206055 C678.651692,30.4477555 678.324546,30.7041006 677.901367,30.8896484 C678.975591,32.4944742 679.675454,33.5312477 680.000977,34 L678.321289,34 L676.617188,31.2607422 L675.811523,31.2607422 Z M685.010742,34 L680.899414,34 L680.899414,26.8613281 L685.010742,26.8613281 L685.010742,28.1015625 L682.413086,28.1015625 L682.413086,29.6689453 L684.830078,29.6689453 L684.830078,30.9091797 L682.413086,30.9091797 L682.413086,32.75 L685.010742,32.75 L685.010742,34 Z M688.72168,29.8007812 L690.210938,26.8613281 L691.841797,26.8613281 L689.473633,31.2216797 L689.473633,34 L687.969727,34 L687.969727,31.2705078 L685.601562,26.8613281 L687.242188,26.8613281 L688.72168,29.8007812 Z" id="Grey" fill="#FCFFFD" transform="translate(679.290527, 30.428223) rotate(-360.000000) translate(-679.290527, -30.428223) "></path>
                <g id="Rectangle-9-Copy-3">
                    <use fill="#258A6B" fill-rule="evenodd" xlink:href="#path-2"></use>
                    <path stroke="#FCFFFD" stroke-width="1" d="M415.5,0.5 L415.5,59.5 L575.014812,59.5 L596.835341,28.4282545 L575.030687,0.5 L415.5,0.5 Z"></path>
                </g>
                <g id="Rectangle-9-Copy-3">
                    <use fill="#487A6A" fill-rule="evenodd" xlink:href="#path-3"></use>
                    <path stroke="#FCFFFD" stroke-width="1" d="M457.5,0.5 L457.5,59.5 L617.014812,59.5 L638.835341,28.4282545 L617.030687,0.5 L457.5,0.5 Z"></path>
                </g>
                <path d="M540.570801,29.9912109 L543.402832,29.9912109 L543.402832,33.6923828 C542.943845,33.8421231 542.511721,33.9471026 542.106445,34.0073242 C541.70117,34.0675459 541.286949,34.0976562 540.86377,34.0976562 C539.78629,34.0976562 538.963545,33.7810904 538.395508,33.1479492 C537.827471,32.514808 537.543457,31.6058002 537.543457,30.4208984 C537.543457,29.2685489 537.873044,28.3701204 538.532227,27.7255859 C539.19141,27.0810515 540.1053,26.7587891 541.273926,26.7587891 C542.006351,26.7587891 542.712724,26.905272 543.393066,27.1982422 L542.890137,28.4091797 C542.369301,28.1487617 541.827314,28.0185547 541.26416,28.0185547 C540.60986,28.0185547 540.085777,28.2382791 539.691895,28.6777344 C539.298012,29.1171897 539.101074,29.7080041 539.101074,30.4501953 C539.101074,31.2249388 539.259764,31.816567 539.577148,32.2250977 C539.894533,32.6336283 540.355954,32.8378906 540.961426,32.8378906 C541.277183,32.8378906 541.597817,32.8053389 541.92334,32.7402344 L541.92334,31.2509766 L540.570801,31.2509766 L540.570801,29.9912109 Z M546.615723,30.0302734 L547.104004,30.0302734 C547.582522,30.0302734 547.935708,29.9505216 548.163574,29.7910156 C548.39144,29.6315096 548.505371,29.3808611 548.505371,29.0390625 C548.505371,28.7005191 548.388999,28.4596361 548.15625,28.3164062 C547.923501,28.1731764 547.562991,28.1015625 547.074707,28.1015625 L546.615723,28.1015625 L546.615723,30.0302734 Z M546.615723,31.2607422 L546.615723,34 L545.102051,34 L545.102051,26.8613281 L547.182129,26.8613281 C548.152186,26.8613281 548.869952,27.0379214 549.335449,27.3911133 C549.800946,27.7443052 550.033691,28.2805954 550.033691,29 C550.033691,29.419924 549.918133,29.7934554 549.687012,30.1206055 C549.455891,30.4477555 549.128746,30.7041006 548.705566,30.8896484 C549.779791,32.4944742 550.479653,33.5312477 550.805176,34 L549.125488,34 L547.421387,31.2607422 L546.615723,31.2607422 Z M555.814941,34 L551.703613,34 L551.703613,26.8613281 L555.814941,26.8613281 L555.814941,28.1015625 L553.217285,28.1015625 L553.217285,29.6689453 L555.634277,29.6689453 L555.634277,30.9091797 L553.217285,30.9091797 L553.217285,32.75 L555.814941,32.75 L555.814941,34 Z M561.415527,34 L557.304199,34 L557.304199,26.8613281 L561.415527,26.8613281 L561.415527,28.1015625 L558.817871,28.1015625 L558.817871,29.6689453 L561.234863,29.6689453 L561.234863,30.9091797 L558.817871,30.9091797 L558.817871,32.75 L561.415527,32.75 L561.415527,34 Z M569.237793,34 L567.313965,34 L564.208496,28.5996094 L564.164551,28.5996094 C564.2264,29.5533902 564.257324,30.2337219 564.257324,30.640625 L564.257324,34 L562.904785,34 L562.904785,26.8613281 L564.813965,26.8613281 L567.914551,32.2080078 L567.94873,32.2080078 C567.899902,31.2802688 567.875488,30.6243509 567.875488,30.2402344 L567.875488,26.8613281 L569.237793,26.8613281 L569.237793,34 Z M570.434082,31.9296875 L570.434082,30.7089844 L573.056152,30.7089844 L573.056152,31.9296875 L570.434082,31.9296875 Z M576.962402,29.9912109 L579.794434,29.9912109 L579.794434,33.6923828 C579.335447,33.8421231 578.903322,33.9471026 578.498047,34.0073242 C578.092771,34.0675459 577.67855,34.0976562 577.255371,34.0976562 C576.177892,34.0976562 575.355146,33.7810904 574.787109,33.1479492 C574.219073,32.514808 573.935059,31.6058002 573.935059,30.4208984 C573.935059,29.2685489 574.264645,28.3701204 574.923828,27.7255859 C575.583011,27.0810515 576.496902,26.7587891 577.665527,26.7587891 C578.397953,26.7587891 579.104326,26.905272 579.784668,27.1982422 L579.281738,28.4091797 C578.760902,28.1487617 578.218916,28.0185547 577.655762,28.0185547 C577.001462,28.0185547 576.477378,28.2382791 576.083496,28.6777344 C575.689614,29.1171897 575.492676,29.7080041 575.492676,30.4501953 C575.492676,31.2249388 575.651366,31.816567 575.96875,32.2250977 C576.286134,32.6336283 576.747556,32.8378906 577.353027,32.8378906 C577.668784,32.8378906 577.989419,32.8053389 578.314941,32.7402344 L578.314941,31.2509766 L576.962402,31.2509766 L576.962402,29.9912109 Z M583.007324,30.0302734 L583.495605,30.0302734 C583.974123,30.0302734 584.32731,29.9505216 584.555176,29.7910156 C584.783042,29.6315096 584.896973,29.3808611 584.896973,29.0390625 C584.896973,28.7005191 584.7806,28.4596361 584.547852,28.3164062 C584.315103,28.1731764 583.954592,28.1015625 583.466309,28.1015625 L583.007324,28.1015625 L583.007324,30.0302734 Z M583.007324,31.2607422 L583.007324,34 L581.493652,34 L581.493652,26.8613281 L583.57373,26.8613281 C584.543787,26.8613281 585.261554,27.0379214 585.727051,27.3911133 C586.192548,27.7443052 586.425293,28.2805954 586.425293,29 C586.425293,29.419924 586.309734,29.7934554 586.078613,30.1206055 C585.847492,30.4477555 585.520347,30.7041006 585.097168,30.8896484 C586.171392,32.4944742 586.871255,33.5312477 587.196777,34 L585.51709,34 L583.812988,31.2607422 L583.007324,31.2607422 Z M592.206543,34 L588.095215,34 L588.095215,26.8613281 L592.206543,26.8613281 L592.206543,28.1015625 L589.608887,28.1015625 L589.608887,29.6689453 L592.025879,29.6689453 L592.025879,30.9091797 L589.608887,30.9091797 L589.608887,32.75 L592.206543,32.75 L592.206543,34 Z M595.91748,29.8007812 L597.406738,26.8613281 L599.037598,26.8613281 L596.669434,31.2216797 L596.669434,34 L595.165527,34 L595.165527,31.2705078 L592.797363,26.8613281 L594.437988,26.8613281 L595.91748,29.8007812 Z" id="Green-grey" fill="#FCFFFD" transform="translate(568.290527, 30.428223) rotate(-360.000000) translate(-568.290527, -30.428223) "></path>
                <g id="Rectangle-9-Copy-3">
                    <use fill="#258A6B" fill-rule="evenodd" xlink:href="#path-4"></use>
                    <path stroke="#FCFFFD" stroke-width="1" d="M335.5,0.5 L335.5,59.5 L495.014812,59.5 L516.835341,28.4282545 L495.030687,0.5 L335.5,0.5 Z"></path>
                </g>
                <path d="M435.021484,29.9912109 L437.853516,29.9912109 L437.853516,33.6923828 C437.394529,33.8421231 436.962404,33.9471026 436.557129,34.0073242 C436.151853,34.0675459 435.737632,34.0976562 435.314453,34.0976562 C434.236974,34.0976562 433.414228,33.7810904 432.846191,33.1479492 C432.278155,32.514808 431.994141,31.6058002 431.994141,30.4208984 C431.994141,29.2685489 432.323727,28.3701204 432.98291,27.7255859 C433.642093,27.0810515 434.555984,26.7587891 435.724609,26.7587891 C436.457035,26.7587891 437.163408,26.905272 437.84375,27.1982422 L437.34082,28.4091797 C436.819984,28.1487617 436.277998,28.0185547 435.714844,28.0185547 C435.060544,28.0185547 434.53646,28.2382791 434.142578,28.6777344 C433.748696,29.1171897 433.551758,29.7080041 433.551758,30.4501953 C433.551758,31.2249388 433.710448,31.816567 434.027832,32.2250977 C434.345216,32.6336283 434.806638,32.8378906 435.412109,32.8378906 C435.727866,32.8378906 436.048501,32.8053389 436.374023,32.7402344 L436.374023,31.2509766 L435.021484,31.2509766 L435.021484,29.9912109 Z M441.066406,30.0302734 L441.554688,30.0302734 C442.033206,30.0302734 442.386392,29.9505216 442.614258,29.7910156 C442.842124,29.6315096 442.956055,29.3808611 442.956055,29.0390625 C442.956055,28.7005191 442.839682,28.4596361 442.606934,28.3164062 C442.374185,28.1731764 442.013674,28.1015625 441.525391,28.1015625 L441.066406,28.1015625 L441.066406,30.0302734 Z M441.066406,31.2607422 L441.066406,34 L439.552734,34 L439.552734,26.8613281 L441.632812,26.8613281 C442.602869,26.8613281 443.320636,27.0379214 443.786133,27.3911133 C444.25163,27.7443052 444.484375,28.2805954 444.484375,29 C444.484375,29.419924 444.368816,29.7934554 444.137695,30.1206055 C443.906574,30.4477555 443.579429,30.7041006 443.15625,30.8896484 C444.230474,32.4944742 444.930337,33.5312477 445.255859,34 L443.576172,34 L441.87207,31.2607422 L441.066406,31.2607422 Z M450.265625,34 L446.154297,34 L446.154297,26.8613281 L450.265625,26.8613281 L450.265625,28.1015625 L447.667969,28.1015625 L447.667969,29.6689453 L450.084961,29.6689453 L450.084961,30.9091797 L447.667969,30.9091797 L447.667969,32.75 L450.265625,32.75 L450.265625,34 Z M455.866211,34 L451.754883,34 L451.754883,26.8613281 L455.866211,26.8613281 L455.866211,28.1015625 L453.268555,28.1015625 L453.268555,29.6689453 L455.685547,29.6689453 L455.685547,30.9091797 L453.268555,30.9091797 L453.268555,32.75 L455.866211,32.75 L455.866211,34 Z M463.688477,34 L461.764648,34 L458.65918,28.5996094 L458.615234,28.5996094 C458.677084,29.5533902 458.708008,30.2337219 458.708008,30.640625 L458.708008,34 L457.355469,34 L457.355469,26.8613281 L459.264648,26.8613281 L462.365234,32.2080078 L462.399414,32.2080078 C462.350586,31.2802688 462.326172,30.6243509 462.326172,30.2402344 L462.326172,26.8613281 L463.688477,26.8613281 L463.688477,34 Z" id="Green" fill="#FCFFFD" transform="translate(447.841309, 30.428223) rotate(-360.000000) translate(-447.841309, -30.428223) "></path>
                <g id="Rectangle-9-Copy-3">
                    <use fill="#43B793" fill-rule="evenodd" xlink:href="#path-5"></use>
                    <path stroke="#FCFFFD" stroke-width="1" d="M222.5,0.5 L222.5,59.5 L382.014812,59.5 L403.835341,28.4282545 L382.030687,0.5 L222.5,0.5 Z"></path>
                </g>
                <path d="M289.615723,19 L287.89209,19 L286.925293,15.25 C286.889485,15.1165358 286.828451,14.8406596 286.742188,14.4223633 C286.655924,14.0040669 286.606283,13.723308 286.593262,13.5800781 C286.57373,13.7558603 286.524903,14.0382468 286.446777,14.4272461 C286.368652,14.8162454 286.308431,15.0937492 286.266113,15.2597656 L285.304199,19 L283.585449,19 L281.76416,11.8613281 L283.253418,11.8613281 L284.166504,15.7578125 C284.32601,16.4772171 284.441569,17.1005833 284.513184,17.6279297 C284.532715,17.4423819 284.577474,17.1551126 284.647461,16.7661133 C284.717448,16.3771139 284.783366,16.0751964 284.845215,15.8603516 L285.885254,11.8613281 L287.315918,11.8613281 L288.355957,15.8603516 C288.40153,16.0393889 288.458496,16.3128237 288.526855,16.6806641 C288.595215,17.0485044 288.647298,17.3642565 288.683105,17.6279297 C288.715658,17.3740222 288.767741,17.0574563 288.839355,16.6782227 C288.91097,16.298989 288.976074,15.9921887 289.034668,15.7578125 L289.942871,11.8613281 L291.432129,11.8613281 L289.615723,19 Z M298.712402,15.4208984 C298.712402,16.602545 298.419437,17.510739 297.833496,18.1455078 C297.247556,18.7802766 296.40772,19.0976562 295.313965,19.0976562 C294.220209,19.0976562 293.380374,18.7802766 292.794434,18.1455078 C292.208493,17.510739 291.915527,16.5992898 291.915527,15.4111328 C291.915527,14.2229758 292.209307,13.3155956 292.796875,12.6889648 C293.384443,12.0623341 294.22672,11.7490234 295.32373,11.7490234 C296.420741,11.7490234 297.259763,12.0647755 297.84082,12.6962891 C298.421878,13.3278026 298.712402,14.2359967 298.712402,15.4208984 Z M293.502441,15.4208984 C293.502441,16.2184285 293.653807,16.8190084 293.956543,17.2226562 C294.259279,17.6263041 294.711748,17.828125 295.313965,17.828125 C296.521653,17.828125 297.125488,17.0257242 297.125488,15.4208984 C297.125488,13.8128175 296.524908,13.0087891 295.32373,13.0087891 C294.721514,13.0087891 294.267417,13.2114238 293.961426,13.6166992 C293.655435,14.0219747 293.502441,14.6233684 293.502441,15.4208984 Z M301.705566,15.0302734 L302.193848,15.0302734 C302.672366,15.0302734 303.025552,14.9505216 303.253418,14.7910156 C303.481284,14.6315096 303.595215,14.3808611 303.595215,14.0390625 C303.595215,13.7005191 303.478842,13.4596361 303.246094,13.3164062 C303.013345,13.1731764 302.652834,13.1015625 302.164551,13.1015625 L301.705566,13.1015625 L301.705566,15.0302734 Z M301.705566,16.2607422 L301.705566,19 L300.191895,19 L300.191895,11.8613281 L302.271973,11.8613281 C303.24203,11.8613281 303.959796,12.0379214 304.425293,12.3911133 C304.89079,12.7443052 305.123535,13.2805954 305.123535,14 C305.123535,14.419924 305.007976,14.7934554 304.776855,15.1206055 C304.545735,15.4477555 304.218589,15.7041006 303.79541,15.8896484 C304.869634,17.4944742 305.569497,18.5312477 305.89502,19 L304.215332,19 L302.51123,16.2607422 L301.705566,16.2607422 Z M312.535645,19 L310.816895,19 L308.946777,15.9921875 L308.307129,16.4511719 L308.307129,19 L306.793457,19 L306.793457,11.8613281 L308.307129,11.8613281 L308.307129,15.1279297 L308.902832,14.2880859 L310.836426,11.8613281 L312.516113,11.8613281 L310.025879,15.0205078 L312.535645,19 Z M313.434082,19 L313.434082,11.8613281 L314.947754,11.8613281 L314.947754,19 L313.434082,19 Z M323.077637,19 L321.153809,19 L318.04834,13.5996094 L318.004395,13.5996094 C318.066244,14.5533902 318.097168,15.2337219 318.097168,15.640625 L318.097168,19 L316.744629,19 L316.744629,11.8613281 L318.653809,11.8613281 L321.754395,17.2080078 L321.788574,17.2080078 C321.739746,16.2802688 321.715332,15.6243509 321.715332,15.2402344 L321.715332,11.8613281 L323.077637,11.8613281 L323.077637,19 Z M327.584473,14.9912109 L330.416504,14.9912109 L330.416504,18.6923828 C329.957517,18.8421231 329.525393,18.9471026 329.120117,19.0073242 C328.714842,19.0675459 328.300621,19.0976562 327.877441,19.0976562 C326.799962,19.0976562 325.977216,18.7810904 325.40918,18.1479492 C324.841143,17.514808 324.557129,16.6058002 324.557129,15.4208984 C324.557129,14.2685489 324.886715,13.3701204 325.545898,12.7255859 C326.205081,12.0810515 327.118972,11.7587891 328.287598,11.7587891 C329.020023,11.7587891 329.726396,11.905272 330.406738,12.1982422 L329.903809,13.4091797 C329.382973,13.1487617 328.840986,13.0185547 328.277832,13.0185547 C327.623532,13.0185547 327.099449,13.2382791 326.705566,13.6777344 C326.311684,14.1171897 326.114746,14.7080041 326.114746,15.4501953 C326.114746,16.2249388 326.273436,16.816567 326.59082,17.2250977 C326.908205,17.6336283 327.369626,17.8378906 327.975098,17.8378906 C328.290854,17.8378906 328.611489,17.8053389 328.937012,17.7402344 L328.937012,16.2509766 L327.584473,16.2509766 L327.584473,14.9912109 Z M341.666504,19 L339.942871,19 L338.976074,15.25 C338.940267,15.1165358 338.879232,14.8406596 338.792969,14.4223633 C338.706705,14.0040669 338.657064,13.723308 338.644043,13.5800781 C338.624512,13.7558603 338.575684,14.0382468 338.497559,14.4272461 C338.419433,14.8162454 338.359212,15.0937492 338.316895,15.2597656 L337.35498,19 L335.63623,19 L333.814941,11.8613281 L335.304199,11.8613281 L336.217285,15.7578125 C336.376791,16.4772171 336.49235,17.1005833 336.563965,17.6279297 C336.583496,17.4423819 336.628255,17.1551126 336.698242,16.7661133 C336.76823,16.3771139 336.834147,16.0751964 336.895996,15.8603516 L337.936035,11.8613281 L339.366699,11.8613281 L340.406738,15.8603516 C340.452311,16.0393889 340.509277,16.3128237 340.577637,16.6806641 C340.645996,17.0485044 340.698079,17.3642565 340.733887,17.6279297 C340.766439,17.3740222 340.818522,17.0574563 340.890137,16.6782227 C340.961752,16.298989 341.026855,15.9921887 341.085449,15.7578125 L341.993652,11.8613281 L343.48291,11.8613281 L341.666504,19 Z M344.381348,19 L344.381348,11.8613281 L345.89502,11.8613281 L345.89502,19 L344.381348,19 Z M350.445801,19 L348.932129,19 L348.932129,13.1210938 L346.993652,13.1210938 L346.993652,11.8613281 L352.384277,11.8613281 L352.384277,13.1210938 L350.445801,13.1210938 L350.445801,19 Z M359.33252,19 L357.82373,19 L357.82373,15.9189453 L354.996582,15.9189453 L354.996582,19 L353.48291,19 L353.48291,11.8613281 L354.996582,11.8613281 L354.996582,14.6591797 L357.82373,14.6591797 L357.82373,11.8613281 L359.33252,11.8613281 L359.33252,19 Z M304.815918,33 L302.89209,33 L299.786621,27.5996094 L299.742676,27.5996094 C299.804525,28.5533902 299.835449,29.2337219 299.835449,29.640625 L299.835449,33 L298.48291,33 L298.48291,25.8613281 L300.39209,25.8613281 L303.492676,31.2080078 L303.526855,31.2080078 C303.478027,30.2802688 303.453613,29.6243509 303.453613,29.2402344 L303.453613,25.8613281 L304.815918,25.8613281 L304.815918,33 Z M310.98291,33 L310.465332,31.3007812 L307.862793,31.3007812 L307.345215,33 L305.714355,33 L308.233887,25.8320312 L310.084473,25.8320312 L312.61377,33 L310.98291,33 Z M310.104004,30.03125 C309.625486,28.4915288 309.35612,27.6207692 309.295898,27.4189453 C309.235677,27.2171214 309.192546,27.0576178 309.166504,26.9404297 C309.059081,27.3570984 308.751467,28.3873616 308.243652,30.03125 L310.104004,30.03125 Z M315.567871,33 L314.054199,33 L314.054199,27.1210938 L312.115723,27.1210938 L312.115723,25.8613281 L317.506348,25.8613281 L317.506348,27.1210938 L315.567871,27.1210938 L315.567871,33 Z M324.415527,25.8613281 L324.415527,30.4804688 C324.415527,31.0078151 324.297527,31.4700501 324.061523,31.8671875 C323.82552,32.2643249 323.48454,32.5686838 323.038574,32.7802734 C322.592608,32.991863 322.06527,33.0976562 321.456543,33.0976562 C320.53857,33.0976562 319.825686,32.8624698 319.317871,32.3920898 C318.810056,31.9217099 318.556152,31.2779989 318.556152,30.4609375 L318.556152,25.8613281 L320.064941,25.8613281 L320.064941,30.2314453 C320.064941,30.7815783 320.175617,31.1852201 320.396973,31.4423828 C320.618328,31.6995456 320.984535,31.828125 321.495605,31.828125 C321.9904,31.828125 322.349283,31.6987318 322.572266,31.4399414 C322.795249,31.181151 322.906738,30.7750679 322.906738,30.2216797 L322.906738,25.8613281 L324.415527,25.8613281 Z M327.677246,29.0302734 L328.165527,29.0302734 C328.644045,29.0302734 328.997232,28.9505216 329.225098,28.7910156 C329.452963,28.6315096 329.566895,28.3808611 329.566895,28.0390625 C329.566895,27.7005191 329.450522,27.4596361 329.217773,27.3164062 C328.985025,27.1731764 328.624514,27.1015625 328.13623,27.1015625 L327.677246,27.1015625 L327.677246,29.0302734 Z M327.677246,30.2607422 L327.677246,33 L326.163574,33 L326.163574,25.8613281 L328.243652,25.8613281 C329.213709,25.8613281 329.931476,26.0379214 330.396973,26.3911133 C330.86247,26.7443052 331.095215,27.2805954 331.095215,28 C331.095215,28.419924 330.979656,28.7934554 330.748535,29.1206055 C330.517414,29.4477555 330.190269,29.7041006 329.76709,29.8896484 C330.841314,31.4944742 331.541177,32.5312477 331.866699,33 L330.187012,33 L328.48291,30.2607422 L327.677246,30.2607422 Z M337.135254,33 L336.617676,31.3007812 L334.015137,31.3007812 L333.497559,33 L331.866699,33 L334.38623,25.8320312 L336.236816,25.8320312 L338.766113,33 L337.135254,33 Z M336.256348,30.03125 C335.77783,28.4915288 335.508464,27.6207692 335.448242,27.4189453 C335.388021,27.2171214 335.344889,27.0576178 335.318848,26.9404297 C335.211425,27.3570984 334.903811,28.3873616 334.395996,30.03125 L336.256348,30.03125 Z M339.664551,33 L339.664551,25.8613281 L341.178223,25.8613281 L341.178223,31.75 L344.07373,31.75 L344.07373,33 L339.664551,33 Z M295.943848,43.2207031 L296.441895,43.2207031 C296.907392,43.2207031 297.255695,43.1287444 297.486816,42.9448242 C297.717937,42.760904 297.833496,42.4931658 297.833496,42.1416016 C297.833496,41.7867821 297.736655,41.5247404 297.542969,41.3554688 C297.349283,41.1861971 297.045738,41.1015625 296.632324,41.1015625 L295.943848,41.1015625 L295.943848,43.2207031 Z M299.361816,42.0878906 C299.361816,42.8561236 299.121747,43.4436829 298.641602,43.8505859 C298.161456,44.257489 297.478683,44.4609375 296.593262,44.4609375 L295.943848,44.4609375 L295.943848,47 L294.430176,47 L294.430176,39.8613281 L296.710449,39.8613281 C297.576339,39.8613281 298.234698,40.0476869 298.685547,40.4204102 C299.136395,40.7931334 299.361816,41.3489546 299.361816,42.0878906 Z M302.223145,43.0302734 L302.711426,43.0302734 C303.189944,43.0302734 303.54313,42.9505216 303.770996,42.7910156 C303.998862,42.6315096 304.112793,42.3808611 304.112793,42.0390625 C304.112793,41.7005191 303.99642,41.4596361 303.763672,41.3164062 C303.530923,41.1731764 303.170413,41.1015625 302.682129,41.1015625 L302.223145,41.1015625 L302.223145,43.0302734 Z M302.223145,44.2607422 L302.223145,47 L300.709473,47 L300.709473,39.8613281 L302.789551,39.8613281 C303.759608,39.8613281 304.477374,40.0379214 304.942871,40.3911133 C305.408368,40.7443052 305.641113,41.2805954 305.641113,42 C305.641113,42.419924 305.525555,42.7934554 305.294434,43.1206055 C305.063313,43.4477555 304.736167,43.7041006 304.312988,43.8896484 C305.387212,45.4944742 306.087075,46.5312477 306.412598,47 L304.73291,47 L303.028809,44.2607422 L302.223145,44.2607422 Z M313.790527,43.4208984 C313.790527,44.602545 313.497562,45.510739 312.911621,46.1455078 C312.325681,46.7802766 311.485845,47.0976562 310.39209,47.0976562 C309.298334,47.0976562 308.458499,46.7802766 307.872559,46.1455078 C307.286618,45.510739 306.993652,44.5992898 306.993652,43.4111328 C306.993652,42.2229758 307.287432,41.3155956 307.875,40.6889648 C308.462568,40.0623341 309.304845,39.7490234 310.401855,39.7490234 C311.498866,39.7490234 312.337888,40.0647755 312.918945,40.6962891 C313.500003,41.3278026 313.790527,42.2359967 313.790527,43.4208984 Z M308.580566,43.4208984 C308.580566,44.2184285 308.731932,44.8190084 309.034668,45.2226562 C309.337404,45.6263041 309.789873,45.828125 310.39209,45.828125 C311.599778,45.828125 312.203613,45.0257242 312.203613,43.4208984 C312.203613,41.8128175 311.603033,41.0087891 310.401855,41.0087891 C309.799639,41.0087891 309.345542,41.2114238 309.039551,41.6166992 C308.73356,42.0219747 308.580566,42.6233684 308.580566,43.4208984 Z M318.302246,41.0185547 C317.732582,41.0185547 317.291505,41.2325825 316.979004,41.6606445 C316.666502,42.0887066 316.510254,42.6852175 316.510254,43.4501953 C316.510254,45.0420001 317.107579,45.8378906 318.302246,45.8378906 C318.803551,45.8378906 319.410641,45.7125664 320.123535,45.4619141 L320.123535,46.7314453 C319.537595,46.9755872 318.883304,47.0976562 318.160645,47.0976562 C317.122228,47.0976562 316.327965,46.782718 315.777832,46.152832 C315.227699,45.5229461 314.952637,44.618821 314.952637,43.4404297 C314.952637,42.6982385 315.087727,42.0480171 315.35791,41.4897461 C315.628094,40.9314751 316.016274,40.5034195 316.522461,40.2055664 C317.028648,39.9077134 317.621904,39.7587891 318.302246,39.7587891 C318.995609,39.7587891 319.692217,39.9264306 320.39209,40.2617188 L319.903809,41.4921875 C319.63688,41.3652337 319.368328,41.2545578 319.098145,41.1601562 C318.827961,41.0657547 318.562664,41.0185547 318.302246,41.0185547 Z M325.753418,47 L321.64209,47 L321.64209,39.8613281 L325.753418,39.8613281 L325.753418,41.1015625 L323.155762,41.1015625 L323.155762,42.6689453 L325.572754,42.6689453 L325.572754,43.9091797 L323.155762,43.9091797 L323.155762,45.75 L325.753418,45.75 L325.753418,47 Z M331.456543,45.0175781 C331.456543,45.6621126 331.224612,46.16992 330.760742,46.5410156 C330.296873,46.9121112 329.651534,47.0976562 328.824707,47.0976562 C328.062984,47.0976562 327.389163,46.9544285 326.803223,46.6679688 L326.803223,45.2617188 C327.284996,45.4765636 327.692707,45.6279292 328.026367,45.7158203 C328.360028,45.8037114 328.6652,45.8476562 328.941895,45.8476562 C329.273927,45.8476562 329.528645,45.7841803 329.706055,45.6572266 C329.883464,45.5302728 329.972168,45.3414726 329.972168,45.0908203 C329.972168,44.9508457 329.933106,44.8263352 329.85498,44.7172852 C329.776855,44.6082351 329.66211,44.5032557 329.510742,44.4023438 C329.359374,44.3014318 329.050946,44.1403006 328.585449,43.9189453 C328.149249,43.7138662 327.822104,43.516928 327.604004,43.328125 C327.385904,43.139322 327.211752,42.9195976 327.081543,42.6689453 C326.951334,42.418293 326.88623,42.1253272 326.88623,41.7900391 C326.88623,41.1585255 327.100258,40.6621112 327.52832,40.3007812 C327.956382,39.9394513 328.548011,39.7587891 329.303223,39.7587891 C329.674318,39.7587891 330.028319,39.8027339 330.365234,39.890625 C330.70215,39.9785161 331.054523,40.1022127 331.422363,40.2617188 L330.934082,41.4384766 C330.553221,41.2822258 330.238282,41.1731774 329.989258,41.1113281 C329.740233,41.0494789 329.495281,41.0185547 329.254395,41.0185547 C328.967935,41.0185547 328.74821,41.0852858 328.595215,41.21875 C328.442219,41.3522142 328.365723,41.5263661 328.365723,41.7412109 C328.365723,41.8746751 328.396647,41.9910477 328.458496,42.090332 C328.520345,42.1896164 328.618814,42.2856441 328.753906,42.378418 C328.888998,42.4711919 329.208819,42.6380196 329.713379,42.8789062 C330.3807,43.1979183 330.838052,43.5177393 331.085449,43.8383789 C331.332846,44.1590185 331.456543,44.552081 331.456543,45.0175781 Z M336.964355,45.0175781 C336.964355,45.6621126 336.732424,46.16992 336.268555,46.5410156 C335.804685,46.9121112 335.159347,47.0976562 334.33252,47.0976562 C333.570797,47.0976562 332.896976,46.9544285 332.311035,46.6679688 L332.311035,45.2617188 C332.792808,45.4765636 333.200519,45.6279292 333.53418,45.7158203 C333.86784,45.8037114 334.173013,45.8476562 334.449707,45.8476562 C334.78174,45.8476562 335.036457,45.7841803 335.213867,45.6572266 C335.391277,45.5302728 335.47998,45.3414726 335.47998,45.0908203 C335.47998,44.9508457 335.440918,44.8263352 335.362793,44.7172852 C335.284668,44.6082351 335.169923,44.5032557 335.018555,44.4023438 C334.867187,44.3014318 334.558759,44.1403006 334.093262,43.9189453 C333.657062,43.7138662 333.329916,43.516928 333.111816,43.328125 C332.893716,43.139322 332.719564,42.9195976 332.589355,42.6689453 C332.459146,42.418293 332.394043,42.1253272 332.394043,41.7900391 C332.394043,41.1585255 332.608071,40.6621112 333.036133,40.3007812 C333.464195,39.9394513 334.055823,39.7587891 334.811035,39.7587891 C335.182131,39.7587891 335.536131,39.8027339 335.873047,39.890625 C336.209963,39.9785161 336.562335,40.1022127 336.930176,40.2617188 L336.441895,41.4384766 C336.061033,41.2822258 335.746095,41.1731774 335.49707,41.1113281 C335.248046,41.0494789 335.003094,41.0185547 334.762207,41.0185547 C334.475747,41.0185547 334.256023,41.0852858 334.103027,41.21875 C333.950032,41.3522142 333.873535,41.5263661 333.873535,41.7412109 C333.873535,41.8746751 333.904459,41.9910477 333.966309,42.090332 C334.028158,42.1896164 334.126627,42.2856441 334.261719,42.378418 C334.396811,42.4711919 334.716632,42.6380196 335.221191,42.8789062 C335.888512,43.1979183 336.345865,43.5177393 336.593262,43.8383789 C336.840659,44.1590185 336.964355,44.552081 336.964355,45.0175781 Z M342.369629,47 L338.258301,47 L338.258301,39.8613281 L342.369629,39.8613281 L342.369629,41.1015625 L339.771973,41.1015625 L339.771973,42.6689453 L342.188965,42.6689453 L342.188965,43.9091797 L339.771973,43.9091797 L339.771973,45.75 L342.369629,45.75 L342.369629,47 Z M348.072754,45.0175781 C348.072754,45.6621126 347.840823,46.16992 347.376953,46.5410156 C346.913084,46.9121112 346.267745,47.0976562 345.440918,47.0976562 C344.679195,47.0976562 344.005374,46.9544285 343.419434,46.6679688 L343.419434,45.2617188 C343.901207,45.4765636 344.308918,45.6279292 344.642578,45.7158203 C344.976239,45.8037114 345.281411,45.8476562 345.558105,45.8476562 C345.890138,45.8476562 346.144856,45.7841803 346.322266,45.6572266 C346.499675,45.5302728 346.588379,45.3414726 346.588379,45.0908203 C346.588379,44.9508457 346.549317,44.8263352 346.471191,44.7172852 C346.393066,44.6082351 346.278321,44.5032557 346.126953,44.4023438 C345.975585,44.3014318 345.667157,44.1403006 345.20166,43.9189453 C344.76546,43.7138662 344.438315,43.516928 344.220215,43.328125 C344.002115,43.139322 343.827963,42.9195976 343.697754,42.6689453 C343.567545,42.418293 343.502441,42.1253272 343.502441,41.7900391 C343.502441,41.1585255 343.716469,40.6621112 344.144531,40.3007812 C344.572593,39.9394513 345.164221,39.7587891 345.919434,39.7587891 C346.290529,39.7587891 346.64453,39.8027339 346.981445,39.890625 C347.318361,39.9785161 347.670734,40.1022127 348.038574,40.2617188 L347.550293,41.4384766 C347.169432,41.2822258 346.854493,41.1731774 346.605469,41.1113281 C346.356444,41.0494789 346.111492,41.0185547 345.870605,41.0185547 C345.584146,41.0185547 345.364421,41.0852858 345.211426,41.21875 C345.05843,41.3522142 344.981934,41.5263661 344.981934,41.7412109 C344.981934,41.8746751 345.012858,41.9910477 345.074707,42.090332 C345.136556,42.1896164 345.235025,42.2856441 345.370117,42.378418 C345.505209,42.4711919 345.82503,42.6380196 346.32959,42.8789062 C346.996911,43.1979183 347.454263,43.5177393 347.70166,43.8383789 C347.949057,44.1590185 348.072754,44.552081 348.072754,45.0175781 Z" id="Working-with-natural" fill="#FCFFFD" transform="translate(320.548340, 29.423340) rotate(-360.000000) translate(-320.548340, -29.423340) "></path>
                <g id="Rectangle-9-Copy-3">
                    <use fill="#25868A" fill-rule="evenodd" xlink:href="#path-6"></use>
                    <path stroke="#FCFFFD" stroke-width="1" d="M82.5,0.5 L82.5,59.5 L242.014812,59.5 L263.835341,28.4282545 L242.030687,0.5 L82.5,0.5 Z"></path>
                </g>
                <g id="Rectangle-9-Copy-3">
                    <use fill="#DF5C5C" fill-rule="evenodd" xlink:href="#path-7"></use>
                    <path stroke="#FCFFFD" stroke-width="1" d="M0.5,0.5 L0.5,59.5 L120.014812,59.5 L141.835341,28.4282545 L120.030687,0.5 L0.5,0.5 Z"></path>
                </g>
                <path d="M22.2314453,34 L20.3076172,34 L17.2021484,28.5996094 L17.1582031,28.5996094 C17.2200524,29.5533902 17.2509766,30.2337219 17.2509766,30.640625 L17.2509766,34 L15.8984375,34 L15.8984375,26.8613281 L17.8076172,26.8613281 L20.9082031,32.2080078 L20.9423828,32.2080078 C20.8935544,31.2802688 20.8691406,30.6243509 20.8691406,30.2402344 L20.8691406,26.8613281 L22.2314453,26.8613281 L22.2314453,34 Z M30.5078125,30.4208984 C30.5078125,31.602545 30.2148467,32.510739 29.6289062,33.1455078 C29.0429658,33.7802766 28.2031305,34.0976562 27.109375,34.0976562 C26.0156195,34.0976562 25.1757842,33.7802766 24.5898438,33.1455078 C24.0039033,32.510739 23.7109375,31.5992898 23.7109375,30.4111328 C23.7109375,29.2229758 24.0047171,28.3155956 24.5922852,27.6889648 C25.1798532,27.0623341 26.0221299,26.7490234 27.1191406,26.7490234 C28.2161513,26.7490234 29.0551729,27.0647755 29.6362305,27.6962891 C30.2172881,28.3278026 30.5078125,29.2359967 30.5078125,30.4208984 Z M25.2978516,30.4208984 C25.2978516,31.2184285 25.4492172,31.8190084 25.7519531,32.2226562 C26.054689,32.6263041 26.5071584,32.828125 27.109375,32.828125 C28.3170633,32.828125 28.9208984,32.0257242 28.9208984,30.4208984 C28.9208984,28.8128175 28.3203185,28.0087891 27.1191406,28.0087891 C26.5169241,28.0087891 26.0628271,28.2114238 25.7568359,28.6166992 C25.4508448,29.0219747 25.2978516,29.6233684 25.2978516,30.4208984 Z M34.5849609,34 L34.5849609,26.8613281 L36.0986328,26.8613281 L36.0986328,34 L34.5849609,34 Z M44.2285156,34 L42.3046875,34 L39.1992188,28.5996094 L39.1552734,28.5996094 C39.2171227,29.5533902 39.2480469,30.2337219 39.2480469,30.640625 L39.2480469,34 L37.8955078,34 L37.8955078,26.8613281 L39.8046875,26.8613281 L42.9052734,32.2080078 L42.9394531,32.2080078 C42.8906248,31.2802688 42.8662109,30.6243509 42.8662109,30.2402344 L42.8662109,26.8613281 L44.2285156,26.8613281 L44.2285156,34 Z M48.7792969,34 L47.265625,34 L47.265625,28.1210938 L45.3271484,28.1210938 L45.3271484,26.8613281 L50.7177734,26.8613281 L50.7177734,28.1210938 L48.7792969,28.1210938 L48.7792969,34 Z M55.9277344,34 L51.8164062,34 L51.8164062,26.8613281 L55.9277344,26.8613281 L55.9277344,28.1015625 L53.3300781,28.1015625 L53.3300781,29.6689453 L55.7470703,29.6689453 L55.7470703,30.9091797 L53.3300781,30.9091797 L53.3300781,32.75 L55.9277344,32.75 L55.9277344,34 Z M58.9306641,30.0302734 L59.4189453,30.0302734 C59.8974633,30.0302734 60.2506499,29.9505216 60.4785156,29.7910156 C60.7063813,29.6315096 60.8203125,29.3808611 60.8203125,29.0390625 C60.8203125,28.7005191 60.70394,28.4596361 60.4711914,28.3164062 C60.2384428,28.1731764 59.8779321,28.1015625 59.3896484,28.1015625 L58.9306641,28.1015625 L58.9306641,30.0302734 Z M58.9306641,31.2607422 L58.9306641,34 L57.4169922,34 L57.4169922,26.8613281 L59.4970703,26.8613281 C60.4671272,26.8613281 61.1848935,27.0379214 61.6503906,27.3911133 C62.1158877,27.7443052 62.3486328,28.2805954 62.3486328,29 C62.3486328,29.419924 62.2330741,29.7934554 62.0019531,30.1206055 C61.7708322,30.4477555 61.443687,30.7041006 61.0205078,30.8896484 C62.0947319,32.4944742 62.7945947,33.5312477 63.1201172,34 L61.4404297,34 L59.7363281,31.2607422 L58.9306641,31.2607422 Z M68.0908203,26.8613281 L69.6191406,26.8613281 L67.1923828,34 L65.5419922,34 L63.1201172,26.8613281 L64.6484375,26.8613281 L65.9912109,31.109375 C66.0660811,31.3600273 66.1433915,31.6521793 66.2231445,31.9858398 C66.3028975,32.3195004 66.352539,32.5514316 66.3720703,32.6816406 C66.4078778,32.38216 66.5299469,31.8580767 66.7382812,31.109375 L68.0908203,26.8613281 Z M74.6289062,34 L70.5175781,34 L70.5175781,26.8613281 L74.6289062,26.8613281 L74.6289062,28.1015625 L72.03125,28.1015625 L72.03125,29.6689453 L74.4482422,29.6689453 L74.4482422,30.9091797 L72.03125,30.9091797 L72.03125,32.75 L74.6289062,32.75 L74.6289062,34 Z M82.4511719,34 L80.5273438,34 L77.421875,28.5996094 L77.3779297,28.5996094 C77.439779,29.5533902 77.4707031,30.2337219 77.4707031,30.640625 L77.4707031,34 L76.1181641,34 L76.1181641,26.8613281 L78.0273438,26.8613281 L81.1279297,32.2080078 L81.1621094,32.2080078 C81.113281,31.2802688 81.0888672,30.6243509 81.0888672,30.2402344 L81.0888672,26.8613281 L82.4511719,26.8613281 L82.4511719,34 Z M87.0019531,34 L85.4882812,34 L85.4882812,28.1210938 L83.5498047,28.1210938 L83.5498047,26.8613281 L88.9404297,26.8613281 L88.9404297,28.1210938 L87.0019531,28.1210938 L87.0019531,34 Z M90.0390625,34 L90.0390625,26.8613281 L91.5527344,26.8613281 L91.5527344,34 L90.0390625,34 Z M99.8291016,30.4208984 C99.8291016,31.602545 99.5361357,32.510739 98.9501953,33.1455078 C98.3642549,33.7802766 97.5244195,34.0976562 96.4306641,34.0976562 C95.3369086,34.0976562 94.4970732,33.7802766 93.9111328,33.1455078 C93.3251924,32.510739 93.0322266,31.5992898 93.0322266,30.4111328 C93.0322266,29.2229758 93.3260062,28.3155956 93.9135742,27.6889648 C94.5011423,27.0623341 95.343419,26.7490234 96.4404297,26.7490234 C97.5374404,26.7490234 98.3764619,27.0647755 98.9575195,27.6962891 C99.5385771,28.3278026 99.8291016,29.2359967 99.8291016,30.4208984 Z M94.6191406,30.4208984 C94.6191406,31.2184285 94.7705063,31.8190084 95.0732422,32.2226562 C95.3759781,32.6263041 95.8284475,32.828125 96.4306641,32.828125 C97.6383524,32.828125 98.2421875,32.0257242 98.2421875,30.4208984 C98.2421875,28.8128175 97.6416076,28.0087891 96.4404297,28.0087891 C95.8382131,28.0087891 95.3841161,28.2114238 95.078125,28.6166992 C94.7721339,29.0219747 94.6191406,29.6233684 94.6191406,30.4208984 Z M107.641602,34 L105.717773,34 L102.612305,28.5996094 L102.568359,28.5996094 C102.630209,29.5533902 102.661133,30.2337219 102.661133,30.640625 L102.661133,34 L101.308594,34 L101.308594,26.8613281 L103.217773,26.8613281 L106.318359,32.2080078 L106.352539,32.2080078 C106.303711,31.2802688 106.279297,30.6243509 106.279297,30.2402344 L106.279297,26.8613281 L107.641602,26.8613281 L107.641602,34 Z" id="No-intervention" fill="#FCFFFD" transform="translate(61.770020, 30.423340) rotate(-360.000000) translate(-61.770020, -30.423340) "></path>
                <path d="M154.446289,27 L152.727539,21.3994141 L152.683594,21.3994141 C152.745443,22.5387427 152.776367,23.2988262 152.776367,23.6796875 L152.776367,27 L151.423828,27 L151.423828,19.8613281 L153.484375,19.8613281 L155.173828,25.3203125 L155.203125,25.3203125 L156.995117,19.8613281 L159.055664,19.8613281 L159.055664,27 L157.644531,27 L157.644531,23.6210938 C157.644531,23.4615877 157.646973,23.2776703 157.651855,23.0693359 C157.656738,22.8610016 157.678711,22.3076217 157.717773,21.4091797 L157.673828,21.4091797 L155.833008,27 L154.446289,27 Z M165.222656,27 L164.705078,25.3007812 L162.102539,25.3007812 L161.584961,27 L159.954102,27 L162.473633,19.8320312 L164.324219,19.8320312 L166.853516,27 L165.222656,27 Z M164.34375,24.03125 C163.865232,22.4915288 163.595866,21.6207692 163.535645,21.4189453 C163.475423,21.2171214 163.432292,21.0576178 163.40625,20.9404297 C163.298828,21.3570984 162.991213,22.3873616 162.483398,24.03125 L164.34375,24.03125 Z M174.084961,27 L172.161133,27 L169.055664,21.5996094 L169.011719,21.5996094 C169.073568,22.5533902 169.104492,23.2337219 169.104492,23.640625 L169.104492,27 L167.751953,27 L167.751953,19.8613281 L169.661133,19.8613281 L172.761719,25.2080078 L172.795898,25.2080078 C172.74707,24.2802688 172.722656,23.6243509 172.722656,23.2402344 L172.722656,19.8613281 L174.084961,19.8613281 L174.084961,27 Z M180.251953,27 L179.734375,25.3007812 L177.131836,25.3007812 L176.614258,27 L174.983398,27 L177.50293,19.8320312 L179.353516,19.8320312 L181.882812,27 L180.251953,27 Z M179.373047,24.03125 C178.894529,22.4915288 178.625163,21.6207692 178.564941,21.4189453 C178.50472,21.2171214 178.461589,21.0576178 178.435547,20.9404297 C178.328124,21.3570984 178.02051,22.3873616 177.512695,24.03125 L179.373047,24.03125 Z M185.291016,22.9912109 L188.123047,22.9912109 L188.123047,26.6923828 C187.66406,26.8421231 187.231936,26.9471026 186.82666,27.0073242 C186.421385,27.0675459 186.007164,27.0976562 185.583984,27.0976562 C184.506505,27.0976562 183.683759,26.7810904 183.115723,26.1479492 C182.547686,25.514808 182.263672,24.6058002 182.263672,23.4208984 C182.263672,22.2685489 182.593258,21.3701204 183.252441,20.7255859 C183.911624,20.0810515 184.825515,19.7587891 185.994141,19.7587891 C186.726566,19.7587891 187.432939,19.905272 188.113281,20.1982422 L187.610352,21.4091797 C187.089516,21.1487617 186.547529,21.0185547 185.984375,21.0185547 C185.330075,21.0185547 184.805992,21.2382791 184.412109,21.6777344 C184.018227,22.1171897 183.821289,22.7080041 183.821289,23.4501953 C183.821289,24.2249388 183.979979,24.816567 184.297363,25.2250977 C184.614748,25.6336283 185.076169,25.8378906 185.681641,25.8378906 C185.997397,25.8378906 186.318032,25.8053389 186.643555,25.7402344 L186.643555,24.2509766 L185.291016,24.2509766 L185.291016,22.9912109 Z M193.933594,27 L189.822266,27 L189.822266,19.8613281 L193.933594,19.8613281 L193.933594,21.1015625 L191.335938,21.1015625 L191.335938,22.6689453 L193.75293,22.6689453 L193.75293,23.9091797 L191.335938,23.9091797 L191.335938,25.75 L193.933594,25.75 L193.933594,27 Z M198.445312,27 L196.726562,21.3994141 L196.682617,21.3994141 C196.744466,22.5387427 196.775391,23.2988262 196.775391,23.6796875 L196.775391,27 L195.422852,27 L195.422852,19.8613281 L197.483398,19.8613281 L199.172852,25.3203125 L199.202148,25.3203125 L200.994141,19.8613281 L203.054688,19.8613281 L203.054688,27 L201.643555,27 L201.643555,23.6210938 C201.643555,23.4615877 201.645996,23.2776703 201.650879,23.0693359 C201.655762,22.8610016 201.677734,22.3076217 201.716797,21.4091797 L201.672852,21.4091797 L199.832031,27 L198.445312,27 Z M208.962891,27 L204.851562,27 L204.851562,19.8613281 L208.962891,19.8613281 L208.962891,21.1015625 L206.365234,21.1015625 L206.365234,22.6689453 L208.782227,22.6689453 L208.782227,23.9091797 L206.365234,23.9091797 L206.365234,25.75 L208.962891,25.75 L208.962891,27 Z M216.785156,27 L214.861328,27 L211.755859,21.5996094 L211.711914,21.5996094 C211.773763,22.5533902 211.804688,23.2337219 211.804688,23.640625 L211.804688,27 L210.452148,27 L210.452148,19.8613281 L212.361328,19.8613281 L215.461914,25.2080078 L215.496094,25.2080078 C215.447265,24.2802688 215.422852,23.6243509 215.422852,23.2402344 L215.422852,19.8613281 L216.785156,19.8613281 L216.785156,27 Z M221.335938,27 L219.822266,27 L219.822266,21.1210938 L217.883789,21.1210938 L217.883789,19.8613281 L223.274414,19.8613281 L223.274414,21.1210938 L221.335938,21.1210938 L221.335938,27 Z M174.663574,37.4208984 C174.663574,38.602545 174.370608,39.510739 173.784668,40.1455078 C173.198728,40.7802766 172.358892,41.0976562 171.265137,41.0976562 C170.171381,41.0976562 169.331546,40.7802766 168.745605,40.1455078 C168.159665,39.510739 167.866699,38.5992898 167.866699,37.4111328 C167.866699,36.2229758 168.160479,35.3155956 168.748047,34.6889648 C169.335615,34.0623341 170.177892,33.7490234 171.274902,33.7490234 C172.371913,33.7490234 173.210935,34.0647755 173.791992,34.6962891 C174.37305,35.3278026 174.663574,36.2359967 174.663574,37.4208984 Z M169.453613,37.4208984 C169.453613,38.2184285 169.604979,38.8190084 169.907715,39.2226562 C170.210451,39.6263041 170.66292,39.828125 171.265137,39.828125 C172.472825,39.828125 173.07666,39.0257242 173.07666,37.4208984 C173.07666,35.8128175 172.47608,35.0087891 171.274902,35.0087891 C170.672686,35.0087891 170.218589,35.2114238 169.912598,35.6166992 C169.606607,36.0219747 169.453613,36.6233684 169.453613,37.4208984 Z M177.656738,37.2207031 L178.154785,37.2207031 C178.620282,37.2207031 178.968586,37.1287444 179.199707,36.9448242 C179.430828,36.760904 179.546387,36.4931658 179.546387,36.1416016 C179.546387,35.7867821 179.449545,35.5247404 179.255859,35.3554688 C179.062174,35.1861971 178.758628,35.1015625 178.345215,35.1015625 L177.656738,35.1015625 L177.656738,37.2207031 Z M181.074707,36.0878906 C181.074707,36.8561236 180.834638,37.4436829 180.354492,37.8505859 C179.874347,38.257489 179.191573,38.4609375 178.306152,38.4609375 L177.656738,38.4609375 L177.656738,41 L176.143066,41 L176.143066,33.8613281 L178.42334,33.8613281 C179.28923,33.8613281 179.947589,34.0476869 180.398438,34.4204102 C180.849286,34.7931334 181.074707,35.3489546 181.074707,36.0878906 Z M185.17627,41 L183.662598,41 L183.662598,35.1210938 L181.724121,35.1210938 L181.724121,33.8613281 L187.114746,33.8613281 L187.114746,35.1210938 L185.17627,35.1210938 L185.17627,41 Z M188.213379,41 L188.213379,33.8613281 L189.727051,33.8613281 L189.727051,41 L188.213379,41 Z M198.003418,37.4208984 C198.003418,38.602545 197.710452,39.510739 197.124512,40.1455078 C196.538571,40.7802766 195.698736,41.0976562 194.60498,41.0976562 C193.511225,41.0976562 192.67139,40.7802766 192.085449,40.1455078 C191.499509,39.510739 191.206543,38.5992898 191.206543,37.4111328 C191.206543,36.2229758 191.500323,35.3155956 192.087891,34.6889648 C192.675459,34.0623341 193.517735,33.7490234 194.614746,33.7490234 C195.711757,33.7490234 196.550778,34.0647755 197.131836,34.6962891 C197.712894,35.3278026 198.003418,36.2359967 198.003418,37.4208984 Z M192.793457,37.4208984 C192.793457,38.2184285 192.944823,38.8190084 193.247559,39.2226562 C193.550294,39.6263041 194.002764,39.828125 194.60498,39.828125 C195.812669,39.828125 196.416504,39.0257242 196.416504,37.4208984 C196.416504,35.8128175 195.815924,35.0087891 194.614746,35.0087891 C194.01253,35.0087891 193.558433,35.2114238 193.252441,35.6166992 C192.94645,36.0219747 192.793457,36.6233684 192.793457,37.4208984 Z M205.815918,41 L203.89209,41 L200.786621,35.5996094 L200.742676,35.5996094 C200.804525,36.5533902 200.835449,37.2337219 200.835449,37.640625 L200.835449,41 L199.48291,41 L199.48291,33.8613281 L201.39209,33.8613281 L204.492676,39.2080078 L204.526855,39.2080078 C204.478027,38.2802688 204.453613,37.6243509 204.453613,37.2402344 L204.453613,33.8613281 L205.815918,33.8613281 L205.815918,41 Z" id="Management-option" fill="#FCFFFD" transform="translate(187.349121, 30.428223) rotate(-360.000000) translate(-187.349121, -30.428223) "></path>
            </g>
        </g>
    </g>
</svg>